<mxfile host="app.diagrams.net" modified="2023-11-29T00:51:49.513Z" agent="Mozilla/5.0 (Windows NT 10.0; Win64; x64) AppleWebKit/537.36 (KHTML, like Gecko) Chrome/119.0.0.0 Safari/537.36" etag="gH-1xNmPG8Gru1LUDzWS" version="22.1.4" type="device">
  <diagram name="페이지-1" id="K5ZHX8CP5jT4fNm3No4B">
    <mxGraphModel dx="1674" dy="738" grid="1" gridSize="10" guides="1" tooltips="1" connect="1" arrows="1" fold="1" page="1" pageScale="1" pageWidth="827" pageHeight="1169" math="0" shadow="0">
      <root>
        <mxCell id="0" />
        <mxCell id="1" parent="0" />
        <mxCell id="YNPu8rS86Y1XCV5-OqWF-1" value="" style="rounded=0;html=1;jettySize=auto;orthogonalLoop=1;fontSize=11;endArrow=block;endFill=0;endSize=8;strokeWidth=1;shadow=0;labelBackgroundColor=none;edgeStyle=orthogonalEdgeStyle;exitX=1;exitY=0.25;exitDx=0;exitDy=0;" edge="1" parent="1" source="YNPu8rS86Y1XCV5-OqWF-3">
          <mxGeometry relative="1" as="geometry">
            <mxPoint x="500" y="105" as="sourcePoint" />
            <mxPoint x="480" y="135" as="targetPoint" />
            <Array as="points">
              <mxPoint x="420" y="105" />
              <mxPoint x="480" y="105" />
            </Array>
          </mxGeometry>
        </mxCell>
        <mxCell id="YNPu8rS86Y1XCV5-OqWF-2" value="아두이노" style="edgeLabel;html=1;align=center;verticalAlign=middle;resizable=0;points=[];" vertex="1" connectable="0" parent="YNPu8rS86Y1XCV5-OqWF-1">
          <mxGeometry x="-0.12" y="1" relative="1" as="geometry">
            <mxPoint x="21" y="19" as="offset" />
          </mxGeometry>
        </mxCell>
        <mxCell id="YNPu8rS86Y1XCV5-OqWF-3" value="PY QT5&amp;nbsp;GUI" style="rounded=1;whiteSpace=wrap;html=1;fontSize=12;glass=0;strokeWidth=1;shadow=0;" vertex="1" parent="1">
          <mxGeometry x="330" y="95" width="90" height="30" as="geometry" />
        </mxCell>
        <mxCell id="YNPu8rS86Y1XCV5-OqWF-4" value="프로그램 시작" style="rounded=1;whiteSpace=wrap;html=1;fontSize=12;glass=0;strokeWidth=1;shadow=0;" vertex="1" parent="1">
          <mxGeometry x="330" y="45" width="90" height="30" as="geometry" />
        </mxCell>
        <mxCell id="YNPu8rS86Y1XCV5-OqWF-5" value="" style="rounded=0;html=1;jettySize=auto;orthogonalLoop=1;fontSize=11;endArrow=block;endFill=0;endSize=8;strokeWidth=1;shadow=0;labelBackgroundColor=none;edgeStyle=orthogonalEdgeStyle;entryX=0.5;entryY=0;entryDx=0;entryDy=0;" edge="1" parent="1">
          <mxGeometry y="20" relative="1" as="geometry">
            <mxPoint as="offset" />
            <mxPoint x="374.5" y="95" as="targetPoint" />
            <mxPoint x="375" y="75" as="sourcePoint" />
          </mxGeometry>
        </mxCell>
        <mxCell id="YNPu8rS86Y1XCV5-OqWF-6" value="" style="rounded=0;html=1;jettySize=auto;orthogonalLoop=1;fontSize=11;endArrow=block;endFill=0;endSize=8;strokeWidth=1;shadow=0;labelBackgroundColor=none;edgeStyle=orthogonalEdgeStyle;exitX=0.5;exitY=1;exitDx=0;exitDy=0;entryX=0.5;entryY=0;entryDx=0;entryDy=0;" edge="1" parent="1" source="YNPu8rS86Y1XCV5-OqWF-42" target="YNPu8rS86Y1XCV5-OqWF-40">
          <mxGeometry relative="1" as="geometry">
            <mxPoint x="100" y="185" as="sourcePoint" />
            <mxPoint x="200" y="301.25" as="targetPoint" />
            <Array as="points">
              <mxPoint x="170" y="315" />
              <mxPoint x="110" y="315" />
              <mxPoint x="110" y="145" />
              <mxPoint x="170" y="145" />
            </Array>
          </mxGeometry>
        </mxCell>
        <mxCell id="YNPu8rS86Y1XCV5-OqWF-7" value="웹캠" style="edgeLabel;html=1;align=center;verticalAlign=middle;resizable=0;points=[];" vertex="1" connectable="0" parent="YNPu8rS86Y1XCV5-OqWF-6">
          <mxGeometry x="-0.12" y="1" relative="1" as="geometry">
            <mxPoint x="-39" y="-37" as="offset" />
          </mxGeometry>
        </mxCell>
        <mxCell id="YNPu8rS86Y1XCV5-OqWF-8" value="No" style="edgeLabel;html=1;align=center;verticalAlign=middle;resizable=0;points=[];" vertex="1" connectable="0" parent="YNPu8rS86Y1XCV5-OqWF-6">
          <mxGeometry x="-0.9262" y="4" relative="1" as="geometry">
            <mxPoint x="-18" y="-3" as="offset" />
          </mxGeometry>
        </mxCell>
        <mxCell id="YNPu8rS86Y1XCV5-OqWF-9" value="SERIAL&lt;br&gt;LISTEN" style="rhombus;whiteSpace=wrap;html=1;shadow=0;fontFamily=Helvetica;fontSize=12;align=center;strokeWidth=1;spacing=6;spacingTop=-4;" vertex="1" parent="1">
          <mxGeometry x="440" y="135" width="80" height="60" as="geometry" />
        </mxCell>
        <mxCell id="YNPu8rS86Y1XCV5-OqWF-10" value="U" style="rounded=0;html=1;jettySize=auto;orthogonalLoop=1;fontSize=11;endArrow=block;endFill=0;endSize=8;strokeWidth=1;shadow=0;labelBackgroundColor=none;edgeStyle=orthogonalEdgeStyle;entryX=0.5;entryY=0;entryDx=0;entryDy=0;" edge="1" parent="1" target="YNPu8rS86Y1XCV5-OqWF-13">
          <mxGeometry x="-0.2613" y="10" relative="1" as="geometry">
            <mxPoint as="offset" />
            <mxPoint x="439.5" y="166" as="sourcePoint" />
            <mxPoint x="439.5" y="186" as="targetPoint" />
            <Array as="points">
              <mxPoint x="440" y="165" />
              <mxPoint x="405" y="165" />
            </Array>
          </mxGeometry>
        </mxCell>
        <mxCell id="YNPu8rS86Y1XCV5-OqWF-11" value="T" style="edgeStyle=orthogonalEdgeStyle;rounded=0;html=1;jettySize=auto;orthogonalLoop=1;fontSize=11;endArrow=block;endFill=0;endSize=8;strokeWidth=1;shadow=0;labelBackgroundColor=none;exitX=1;exitY=0.5;exitDx=0;exitDy=0;" edge="1" parent="1">
          <mxGeometry x="0.2" y="-10" relative="1" as="geometry">
            <mxPoint as="offset" />
            <mxPoint x="520" y="165" as="sourcePoint" />
            <mxPoint x="540" y="195" as="targetPoint" />
            <Array as="points">
              <mxPoint x="540" y="165" />
            </Array>
          </mxGeometry>
        </mxCell>
        <mxCell id="YNPu8rS86Y1XCV5-OqWF-12" value="서버 8889 포트&lt;br style=&quot;border-color: var(--border-color);&quot;&gt;소켓 연결" style="rounded=1;whiteSpace=wrap;html=1;fontSize=12;glass=0;strokeWidth=1;shadow=0;" vertex="1" parent="1">
          <mxGeometry x="500" y="195" width="90" height="30" as="geometry" />
        </mxCell>
        <mxCell id="YNPu8rS86Y1XCV5-OqWF-13" value="서버 8888 포트&lt;br&gt;소켓 연결" style="rounded=1;whiteSpace=wrap;html=1;fontSize=12;glass=0;strokeWidth=1;shadow=0;" vertex="1" parent="1">
          <mxGeometry x="360" y="195" width="90" height="30" as="geometry" />
        </mxCell>
        <mxCell id="YNPu8rS86Y1XCV5-OqWF-14" value="UID+@+LOG &lt;br&gt;문자열 전송" style="rounded=1;whiteSpace=wrap;html=1;fontSize=12;glass=0;strokeWidth=1;shadow=0;" vertex="1" parent="1">
          <mxGeometry x="360" y="245" width="90" height="30" as="geometry" />
        </mxCell>
        <mxCell id="YNPu8rS86Y1XCV5-OqWF-15" value="이미지 송신" style="rounded=1;whiteSpace=wrap;html=1;fontSize=12;glass=0;strokeWidth=1;shadow=0;" vertex="1" parent="1">
          <mxGeometry x="360" y="295" width="90" height="30" as="geometry" />
        </mxCell>
        <mxCell id="YNPu8rS86Y1XCV5-OqWF-16" value="이미지 수신" style="rounded=1;whiteSpace=wrap;html=1;fontSize=12;glass=0;strokeWidth=1;shadow=0;" vertex="1" parent="1">
          <mxGeometry x="360" y="345" width="90" height="30" as="geometry" />
        </mxCell>
        <mxCell id="YNPu8rS86Y1XCV5-OqWF-17" value="" style="rounded=0;html=1;jettySize=auto;orthogonalLoop=1;fontSize=11;endArrow=block;endFill=0;endSize=8;strokeWidth=1;shadow=0;labelBackgroundColor=none;edgeStyle=orthogonalEdgeStyle;entryX=0.5;entryY=0;entryDx=0;entryDy=0;" edge="1" parent="1">
          <mxGeometry y="20" relative="1" as="geometry">
            <mxPoint as="offset" />
            <mxPoint x="404.5" y="245" as="targetPoint" />
            <mxPoint x="405" y="225" as="sourcePoint" />
          </mxGeometry>
        </mxCell>
        <mxCell id="YNPu8rS86Y1XCV5-OqWF-18" value="" style="rounded=0;html=1;jettySize=auto;orthogonalLoop=1;fontSize=11;endArrow=block;endFill=0;endSize=8;strokeWidth=1;shadow=0;labelBackgroundColor=none;edgeStyle=orthogonalEdgeStyle;entryX=0.5;entryY=0;entryDx=0;entryDy=0;" edge="1" parent="1">
          <mxGeometry y="20" relative="1" as="geometry">
            <mxPoint as="offset" />
            <mxPoint x="404.5" y="295" as="targetPoint" />
            <mxPoint x="405" y="275" as="sourcePoint" />
          </mxGeometry>
        </mxCell>
        <mxCell id="YNPu8rS86Y1XCV5-OqWF-19" value="" style="rounded=0;html=1;jettySize=auto;orthogonalLoop=1;fontSize=11;endArrow=block;endFill=0;endSize=8;strokeWidth=1;shadow=0;labelBackgroundColor=none;edgeStyle=orthogonalEdgeStyle;entryX=0.5;entryY=0;entryDx=0;entryDy=0;" edge="1" parent="1">
          <mxGeometry y="20" relative="1" as="geometry">
            <mxPoint as="offset" />
            <mxPoint x="404.5" y="345" as="targetPoint" />
            <mxPoint x="405" y="325" as="sourcePoint" />
          </mxGeometry>
        </mxCell>
        <mxCell id="YNPu8rS86Y1XCV5-OqWF-20" value="이미지 송신" style="rounded=1;whiteSpace=wrap;html=1;fontSize=12;glass=0;strokeWidth=1;shadow=0;" vertex="1" parent="1">
          <mxGeometry x="500" y="295" width="90" height="30" as="geometry" />
        </mxCell>
        <mxCell id="YNPu8rS86Y1XCV5-OqWF-21" value="" style="rounded=0;html=1;jettySize=auto;orthogonalLoop=1;fontSize=11;endArrow=block;endFill=0;endSize=8;strokeWidth=1;shadow=0;labelBackgroundColor=none;edgeStyle=orthogonalEdgeStyle;entryX=0.5;entryY=0;entryDx=0;entryDy=0;" edge="1" parent="1">
          <mxGeometry y="20" relative="1" as="geometry">
            <mxPoint as="offset" />
            <mxPoint x="544.5" y="245" as="targetPoint" />
            <mxPoint x="545" y="225" as="sourcePoint" />
          </mxGeometry>
        </mxCell>
        <mxCell id="YNPu8rS86Y1XCV5-OqWF-22" value="" style="rounded=0;html=1;jettySize=auto;orthogonalLoop=1;fontSize=11;endArrow=block;endFill=0;endSize=8;strokeWidth=1;shadow=0;labelBackgroundColor=none;edgeStyle=orthogonalEdgeStyle;entryX=0.5;entryY=0;entryDx=0;entryDy=0;" edge="1" parent="1">
          <mxGeometry y="20" relative="1" as="geometry">
            <mxPoint as="offset" />
            <mxPoint x="544.5" y="345" as="targetPoint" />
            <mxPoint x="545" y="325" as="sourcePoint" />
          </mxGeometry>
        </mxCell>
        <mxCell id="YNPu8rS86Y1XCV5-OqWF-23" value="아두이노&lt;br style=&quot;border-color: var(--border-color);&quot;&gt;서보모터 제어" style="rounded=1;whiteSpace=wrap;html=1;fontSize=12;glass=0;strokeWidth=1;shadow=0;" vertex="1" parent="1">
          <mxGeometry x="500" y="415" width="90" height="30" as="geometry" />
        </mxCell>
        <mxCell id="YNPu8rS86Y1XCV5-OqWF-24" value="&lt;br&gt;관리실 명령&lt;br style=&quot;border-color: var(--border-color);&quot;&gt;수신" style="rhombus;whiteSpace=wrap;html=1;shadow=0;fontFamily=Helvetica;fontSize=12;align=center;strokeWidth=1;spacing=6;spacingTop=-4;" vertex="1" parent="1">
          <mxGeometry x="492.5" y="345" width="105" height="40" as="geometry" />
        </mxCell>
        <mxCell id="YNPu8rS86Y1XCV5-OqWF-25" value="CLOSE" style="edgeStyle=orthogonalEdgeStyle;rounded=0;html=1;jettySize=auto;orthogonalLoop=1;fontSize=11;endArrow=block;endFill=0;endSize=8;strokeWidth=1;shadow=0;labelBackgroundColor=none;exitX=1;exitY=0.5;exitDx=0;exitDy=0;" edge="1" parent="1" target="YNPu8rS86Y1XCV5-OqWF-27">
          <mxGeometry x="-0.7297" y="10" relative="1" as="geometry">
            <mxPoint as="offset" />
            <mxPoint x="597.5" y="365" as="sourcePoint" />
            <mxPoint x="617.5" y="395" as="targetPoint" />
            <Array as="points">
              <mxPoint x="640" y="365" />
            </Array>
          </mxGeometry>
        </mxCell>
        <mxCell id="YNPu8rS86Y1XCV5-OqWF-26" value="OPEN" style="rounded=0;html=1;jettySize=auto;orthogonalLoop=1;fontSize=11;endArrow=block;endFill=0;endSize=8;strokeWidth=1;shadow=0;labelBackgroundColor=none;edgeStyle=orthogonalEdgeStyle;" edge="1" parent="1">
          <mxGeometry x="-0.3103" y="16" relative="1" as="geometry">
            <mxPoint as="offset" />
            <mxPoint x="544" y="385" as="sourcePoint" />
            <mxPoint x="544.5" y="414" as="targetPoint" />
            <Array as="points">
              <mxPoint x="544.5" y="414" />
            </Array>
          </mxGeometry>
        </mxCell>
        <mxCell id="YNPu8rS86Y1XCV5-OqWF-27" value="아두이노&lt;br&gt;서보모터 제어" style="rounded=1;whiteSpace=wrap;html=1;fontSize=12;glass=0;strokeWidth=1;shadow=0;" vertex="1" parent="1">
          <mxGeometry x="600" y="415" width="90" height="30" as="geometry" />
        </mxCell>
        <mxCell id="YNPu8rS86Y1XCV5-OqWF-28" value="아두이노 &lt;br&gt;부저 제어" style="rounded=1;whiteSpace=wrap;html=1;fontSize=12;glass=0;strokeWidth=1;shadow=0;" vertex="1" parent="1">
          <mxGeometry x="600" y="465" width="90" height="30" as="geometry" />
        </mxCell>
        <mxCell id="YNPu8rS86Y1XCV5-OqWF-29" value="" style="rounded=0;html=1;jettySize=auto;orthogonalLoop=1;fontSize=11;endArrow=block;endFill=0;endSize=8;strokeWidth=1;shadow=0;labelBackgroundColor=none;edgeStyle=orthogonalEdgeStyle;entryX=0.5;entryY=0;entryDx=0;entryDy=0;" edge="1" parent="1">
          <mxGeometry y="20" relative="1" as="geometry">
            <mxPoint as="offset" />
            <mxPoint x="544.5" y="465" as="targetPoint" />
            <mxPoint x="545" y="445" as="sourcePoint" />
          </mxGeometry>
        </mxCell>
        <mxCell id="YNPu8rS86Y1XCV5-OqWF-30" value="" style="rounded=0;html=1;jettySize=auto;orthogonalLoop=1;fontSize=11;endArrow=block;endFill=0;endSize=8;strokeWidth=1;shadow=0;labelBackgroundColor=none;edgeStyle=orthogonalEdgeStyle;entryX=0.5;entryY=0;entryDx=0;entryDy=0;" edge="1" parent="1">
          <mxGeometry y="20" relative="1" as="geometry">
            <mxPoint as="offset" />
            <mxPoint x="640" y="465" as="targetPoint" />
            <mxPoint x="640.5" y="445" as="sourcePoint" />
          </mxGeometry>
        </mxCell>
        <mxCell id="YNPu8rS86Y1XCV5-OqWF-31" value="" style="rounded=0;html=1;jettySize=auto;orthogonalLoop=1;fontSize=11;endArrow=block;endFill=0;endSize=8;strokeWidth=1;shadow=0;labelBackgroundColor=none;edgeStyle=orthogonalEdgeStyle;entryX=0.5;entryY=0;entryDx=0;entryDy=0;" edge="1" parent="1">
          <mxGeometry y="20" relative="1" as="geometry">
            <mxPoint as="offset" />
            <mxPoint x="544.5" y="295" as="targetPoint" />
            <mxPoint x="545" y="275" as="sourcePoint" />
          </mxGeometry>
        </mxCell>
        <mxCell id="YNPu8rS86Y1XCV5-OqWF-32" value="GUI &lt;br&gt;승인 대기 중" style="rounded=1;whiteSpace=wrap;html=1;fontSize=12;glass=0;strokeWidth=1;shadow=0;" vertex="1" parent="1">
          <mxGeometry x="500" y="245" width="90" height="30" as="geometry" />
        </mxCell>
        <mxCell id="YNPu8rS86Y1XCV5-OqWF-33" value="" style="rounded=0;html=1;jettySize=auto;orthogonalLoop=1;fontSize=11;endArrow=block;endFill=0;endSize=8;strokeWidth=1;shadow=0;labelBackgroundColor=none;edgeStyle=orthogonalEdgeStyle;" edge="1" parent="1">
          <mxGeometry y="20" relative="1" as="geometry">
            <mxPoint as="offset" />
            <mxPoint x="480" y="135" as="targetPoint" />
            <mxPoint x="545" y="495" as="sourcePoint" />
            <Array as="points">
              <mxPoint x="545" y="565" />
              <mxPoint x="730" y="565" />
              <mxPoint x="730" y="135" />
            </Array>
          </mxGeometry>
        </mxCell>
        <mxCell id="YNPu8rS86Y1XCV5-OqWF-34" value="GUI &lt;br&gt;관리실 승인" style="rounded=1;whiteSpace=wrap;html=1;fontSize=12;glass=0;strokeWidth=1;shadow=0;" vertex="1" parent="1">
          <mxGeometry x="500" y="465" width="90" height="30" as="geometry" />
        </mxCell>
        <mxCell id="YNPu8rS86Y1XCV5-OqWF-35" value="" style="rounded=0;html=1;jettySize=auto;orthogonalLoop=1;fontSize=11;endArrow=block;endFill=0;endSize=8;strokeWidth=1;shadow=0;labelBackgroundColor=none;edgeStyle=orthogonalEdgeStyle;" edge="1" parent="1">
          <mxGeometry y="20" relative="1" as="geometry">
            <mxPoint as="offset" />
            <mxPoint x="480" y="135" as="targetPoint" />
            <mxPoint x="645" y="545" as="sourcePoint" />
            <Array as="points">
              <mxPoint x="645" y="555" />
              <mxPoint x="710" y="555" />
              <mxPoint x="710" y="135" />
            </Array>
          </mxGeometry>
        </mxCell>
        <mxCell id="YNPu8rS86Y1XCV5-OqWF-36" value="GUI &lt;br&gt;관리실 거부" style="rounded=1;whiteSpace=wrap;html=1;fontSize=12;glass=0;strokeWidth=1;shadow=0;" vertex="1" parent="1">
          <mxGeometry x="600" y="515" width="90" height="30" as="geometry" />
        </mxCell>
        <mxCell id="YNPu8rS86Y1XCV5-OqWF-37" value="" style="rounded=0;html=1;jettySize=auto;orthogonalLoop=1;fontSize=11;endArrow=block;endFill=0;endSize=8;strokeWidth=1;shadow=0;labelBackgroundColor=none;edgeStyle=orthogonalEdgeStyle;entryX=0.5;entryY=0;entryDx=0;entryDy=0;" edge="1" parent="1">
          <mxGeometry y="20" relative="1" as="geometry">
            <mxPoint as="offset" />
            <mxPoint x="644.5" y="515" as="targetPoint" />
            <mxPoint x="645" y="495" as="sourcePoint" />
          </mxGeometry>
        </mxCell>
        <mxCell id="YNPu8rS86Y1XCV5-OqWF-38" value="U" style="rounded=0;html=1;jettySize=auto;orthogonalLoop=1;fontSize=11;endArrow=block;endFill=0;endSize=8;strokeWidth=1;shadow=0;labelBackgroundColor=none;edgeStyle=orthogonalEdgeStyle;entryX=0.5;entryY=0;entryDx=0;entryDy=0;" edge="1" parent="1" target="YNPu8rS86Y1XCV5-OqWF-39">
          <mxGeometry x="-0.2613" y="10" relative="1" as="geometry">
            <mxPoint as="offset" />
            <mxPoint x="329.5" y="106" as="sourcePoint" />
            <mxPoint x="329.5" y="126" as="targetPoint" />
            <Array as="points">
              <mxPoint x="330" y="105" />
              <mxPoint x="295" y="105" />
            </Array>
          </mxGeometry>
        </mxCell>
        <mxCell id="YNPu8rS86Y1XCV5-OqWF-39" value="웹캠 시작" style="rounded=1;whiteSpace=wrap;html=1;fontSize=12;glass=0;strokeWidth=1;shadow=0;" vertex="1" parent="1">
          <mxGeometry x="250" y="135" width="90" height="30" as="geometry" />
        </mxCell>
        <mxCell id="YNPu8rS86Y1XCV5-OqWF-40" value="&lt;br&gt;웹캠&lt;br&gt;GUI&lt;br&gt;출력" style="rhombus;whiteSpace=wrap;html=1;shadow=0;fontFamily=Helvetica;fontSize=12;align=center;strokeWidth=1;spacing=6;spacingTop=-4;" vertex="1" parent="1">
          <mxGeometry x="130" y="160" width="80" height="60" as="geometry" />
        </mxCell>
        <mxCell id="YNPu8rS86Y1XCV5-OqWF-41" value="" style="rounded=0;html=1;jettySize=auto;orthogonalLoop=1;fontSize=11;endArrow=block;endFill=0;endSize=8;strokeWidth=1;shadow=0;labelBackgroundColor=none;edgeStyle=orthogonalEdgeStyle;entryX=1;entryY=0.5;entryDx=0;entryDy=0;exitX=0;exitY=0.5;exitDx=0;exitDy=0;" edge="1" parent="1" source="YNPu8rS86Y1XCV5-OqWF-39" target="YNPu8rS86Y1XCV5-OqWF-40">
          <mxGeometry y="20" relative="1" as="geometry">
            <mxPoint as="offset" />
            <mxPoint x="240" y="165" as="targetPoint" />
            <mxPoint x="240.5" y="145" as="sourcePoint" />
            <Array as="points">
              <mxPoint x="240" y="150" />
              <mxPoint x="240" y="190" />
            </Array>
          </mxGeometry>
        </mxCell>
        <mxCell id="YNPu8rS86Y1XCV5-OqWF-42" value="웹캠 정지" style="rhombus;whiteSpace=wrap;html=1;shadow=0;fontFamily=Helvetica;fontSize=12;align=center;strokeWidth=1;spacing=6;spacingTop=-4;" vertex="1" parent="1">
          <mxGeometry x="130" y="235" width="80" height="60" as="geometry" />
        </mxCell>
        <mxCell id="YNPu8rS86Y1XCV5-OqWF-43" value="" style="rounded=0;html=1;jettySize=auto;orthogonalLoop=1;fontSize=11;endArrow=block;endFill=0;endSize=8;strokeWidth=1;shadow=0;labelBackgroundColor=none;edgeStyle=orthogonalEdgeStyle;entryX=0.5;entryY=0;entryDx=0;entryDy=0;exitX=0.5;exitY=1;exitDx=0;exitDy=0;" edge="1" parent="1" source="YNPu8rS86Y1XCV5-OqWF-40">
          <mxGeometry y="20" relative="1" as="geometry">
            <mxPoint as="offset" />
            <mxPoint x="170" y="235" as="targetPoint" />
            <mxPoint x="170" y="225" as="sourcePoint" />
          </mxGeometry>
        </mxCell>
        <mxCell id="YNPu8rS86Y1XCV5-OqWF-44" value="Yes" style="edgeLabel;html=1;align=center;verticalAlign=middle;resizable=0;points=[];" vertex="1" connectable="0" parent="YNPu8rS86Y1XCV5-OqWF-43">
          <mxGeometry x="-0.0667" relative="1" as="geometry">
            <mxPoint x="14" y="-2" as="offset" />
          </mxGeometry>
        </mxCell>
        <mxCell id="YNPu8rS86Y1XCV5-OqWF-45" value="" style="rounded=0;html=1;jettySize=auto;orthogonalLoop=1;fontSize=11;endArrow=block;endFill=0;endSize=8;strokeWidth=1;shadow=0;labelBackgroundColor=none;edgeStyle=orthogonalEdgeStyle;exitX=1;exitY=0.5;exitDx=0;exitDy=0;entryX=0;entryY=0;entryDx=0;entryDy=0;" edge="1" parent="1" source="YNPu8rS86Y1XCV5-OqWF-42" target="YNPu8rS86Y1XCV5-OqWF-3">
          <mxGeometry y="20" relative="1" as="geometry">
            <mxPoint as="offset" />
            <mxPoint x="220" y="95" as="targetPoint" />
            <mxPoint x="220" y="225" as="sourcePoint" />
            <Array as="points">
              <mxPoint x="220" y="265" />
              <mxPoint x="220" y="335" />
              <mxPoint x="90" y="335" />
              <mxPoint x="90" y="95" />
            </Array>
          </mxGeometry>
        </mxCell>
        <mxCell id="YNPu8rS86Y1XCV5-OqWF-46" value="Yes" style="edgeLabel;html=1;align=center;verticalAlign=middle;resizable=0;points=[];" vertex="1" connectable="0" parent="YNPu8rS86Y1XCV5-OqWF-45">
          <mxGeometry x="-0.0667" relative="1" as="geometry">
            <mxPoint x="125" y="32" as="offset" />
          </mxGeometry>
        </mxCell>
        <mxCell id="YNPu8rS86Y1XCV5-OqWF-47" value="" style="rounded=0;html=1;jettySize=auto;orthogonalLoop=1;fontSize=11;endArrow=block;endFill=0;endSize=8;strokeWidth=1;shadow=0;labelBackgroundColor=none;edgeStyle=orthogonalEdgeStyle;" edge="1" parent="1">
          <mxGeometry x="-0.2613" y="10" relative="1" as="geometry">
            <mxPoint as="offset" />
            <mxPoint x="440" y="165" as="sourcePoint" />
            <mxPoint x="330" y="185" as="targetPoint" />
            <Array as="points">
              <mxPoint x="405" y="165" />
              <mxPoint x="405" y="185" />
              <mxPoint x="330" y="185" />
            </Array>
          </mxGeometry>
        </mxCell>
        <mxCell id="YNPu8rS86Y1XCV5-OqWF-48" style="edgeStyle=none;curved=1;rounded=0;orthogonalLoop=1;jettySize=auto;html=1;fontSize=12;startSize=8;endSize=8;exitX=0.5;exitY=1;exitDx=0;exitDy=0;entryX=0.5;entryY=0;entryDx=0;entryDy=0;" edge="1" parent="1" source="YNPu8rS86Y1XCV5-OqWF-49" target="YNPu8rS86Y1XCV5-OqWF-52">
          <mxGeometry relative="1" as="geometry">
            <mxPoint x="400" y="385" as="targetPoint" />
            <mxPoint x="280" y="225" as="sourcePoint" />
            <Array as="points">
              <mxPoint x="290" y="365" />
            </Array>
          </mxGeometry>
        </mxCell>
        <mxCell id="YNPu8rS86Y1XCV5-OqWF-49" value="프레임 캡처&lt;br&gt;이미지 저장" style="rounded=1;whiteSpace=wrap;html=1;fontSize=12;glass=0;strokeWidth=1;shadow=0;" vertex="1" parent="1">
          <mxGeometry x="260" y="172" width="70" height="30" as="geometry" />
        </mxCell>
        <mxCell id="YNPu8rS86Y1XCV5-OqWF-50" value="" style="rounded=0;html=1;jettySize=auto;orthogonalLoop=1;fontSize=11;endArrow=block;endFill=0;endSize=8;strokeWidth=1;shadow=0;labelBackgroundColor=none;edgeStyle=orthogonalEdgeStyle;entryX=0.5;entryY=0;entryDx=0;entryDy=0;" edge="1" parent="1">
          <mxGeometry y="20" relative="1" as="geometry">
            <mxPoint as="offset" />
            <mxPoint x="404.5" y="395" as="targetPoint" />
            <mxPoint x="405" y="375" as="sourcePoint" />
          </mxGeometry>
        </mxCell>
        <mxCell id="YNPu8rS86Y1XCV5-OqWF-51" value="아두이노&lt;br style=&quot;border-color: var(--border-color);&quot;&gt;서보모터 제어" style="rounded=1;whiteSpace=wrap;html=1;fontSize=12;glass=0;strokeWidth=1;shadow=0;" vertex="1" parent="1">
          <mxGeometry x="360" y="465" width="90" height="30" as="geometry" />
        </mxCell>
        <mxCell id="YNPu8rS86Y1XCV5-OqWF-52" value="&lt;br&gt;이미지&lt;br&gt;비교" style="rhombus;whiteSpace=wrap;html=1;shadow=0;fontFamily=Helvetica;fontSize=12;align=center;strokeWidth=1;spacing=6;spacingTop=-4;" vertex="1" parent="1">
          <mxGeometry x="352.5" y="395" width="105" height="40" as="geometry" />
        </mxCell>
        <mxCell id="YNPu8rS86Y1XCV5-OqWF-53" value="MATCH" style="edgeStyle=orthogonalEdgeStyle;rounded=0;html=1;jettySize=auto;orthogonalLoop=1;fontSize=11;endArrow=block;endFill=0;endSize=8;strokeWidth=1;shadow=0;labelBackgroundColor=none;" edge="1" parent="1">
          <mxGeometry x="-0.7297" y="10" relative="1" as="geometry">
            <mxPoint as="offset" />
            <mxPoint x="350" y="415" as="sourcePoint" />
            <mxPoint x="300" y="465" as="targetPoint" />
            <Array as="points">
              <mxPoint x="300" y="415" />
              <mxPoint x="300" y="465" />
            </Array>
          </mxGeometry>
        </mxCell>
        <mxCell id="YNPu8rS86Y1XCV5-OqWF-54" value="MISMATCH" style="rounded=0;html=1;jettySize=auto;orthogonalLoop=1;fontSize=11;endArrow=block;endFill=0;endSize=8;strokeWidth=1;shadow=0;labelBackgroundColor=none;edgeStyle=orthogonalEdgeStyle;" edge="1" parent="1">
          <mxGeometry x="-0.3103" y="26" relative="1" as="geometry">
            <mxPoint as="offset" />
            <mxPoint x="404" y="435" as="sourcePoint" />
            <mxPoint x="404.5" y="464" as="targetPoint" />
            <Array as="points">
              <mxPoint x="404.5" y="464" />
            </Array>
          </mxGeometry>
        </mxCell>
        <mxCell id="YNPu8rS86Y1XCV5-OqWF-55" value="아두이노&lt;br&gt;서보모터 제어" style="rounded=1;whiteSpace=wrap;html=1;fontSize=12;glass=0;strokeWidth=1;shadow=0;" vertex="1" parent="1">
          <mxGeometry x="256" y="465" width="90" height="30" as="geometry" />
        </mxCell>
        <mxCell id="YNPu8rS86Y1XCV5-OqWF-56" value="GUI &lt;br&gt;관리실 거부" style="rounded=1;whiteSpace=wrap;html=1;fontSize=12;glass=0;strokeWidth=1;shadow=0;" vertex="1" parent="1">
          <mxGeometry x="360" y="515" width="90" height="30" as="geometry" />
        </mxCell>
        <mxCell id="YNPu8rS86Y1XCV5-OqWF-57" value="GUI &lt;br&gt;관리실 승인" style="rounded=1;whiteSpace=wrap;html=1;fontSize=12;glass=0;strokeWidth=1;shadow=0;" vertex="1" parent="1">
          <mxGeometry x="256" y="515" width="90" height="30" as="geometry" />
        </mxCell>
        <mxCell id="YNPu8rS86Y1XCV5-OqWF-58" value="" style="rounded=0;html=1;jettySize=auto;orthogonalLoop=1;fontSize=11;endArrow=block;endFill=0;endSize=8;strokeWidth=1;shadow=0;labelBackgroundColor=none;edgeStyle=orthogonalEdgeStyle;entryX=0.5;entryY=0;entryDx=0;entryDy=0;" edge="1" parent="1">
          <mxGeometry y="20" relative="1" as="geometry">
            <mxPoint as="offset" />
            <mxPoint x="404.5" y="515" as="targetPoint" />
            <mxPoint x="405" y="495" as="sourcePoint" />
          </mxGeometry>
        </mxCell>
        <mxCell id="YNPu8rS86Y1XCV5-OqWF-59" value="" style="rounded=0;html=1;jettySize=auto;orthogonalLoop=1;fontSize=11;endArrow=block;endFill=0;endSize=8;strokeWidth=1;shadow=0;labelBackgroundColor=none;edgeStyle=orthogonalEdgeStyle;entryX=0.5;entryY=0;entryDx=0;entryDy=0;" edge="1" parent="1">
          <mxGeometry y="20" relative="1" as="geometry">
            <mxPoint as="offset" />
            <mxPoint x="300" y="515" as="targetPoint" />
            <mxPoint x="300.5" y="495" as="sourcePoint" />
          </mxGeometry>
        </mxCell>
        <mxCell id="YNPu8rS86Y1XCV5-OqWF-60" value="" style="rounded=0;html=1;jettySize=auto;orthogonalLoop=1;fontSize=11;endArrow=block;endFill=0;endSize=8;strokeWidth=1;shadow=0;labelBackgroundColor=none;edgeStyle=orthogonalEdgeStyle;" edge="1" parent="1">
          <mxGeometry y="20" relative="1" as="geometry">
            <mxPoint as="offset" />
            <mxPoint x="480" y="145" as="targetPoint" />
            <mxPoint x="405" y="545" as="sourcePoint" />
            <Array as="points">
              <mxPoint x="405" y="575" />
              <mxPoint x="750" y="575" />
              <mxPoint x="750" y="135" />
            </Array>
          </mxGeometry>
        </mxCell>
        <mxCell id="YNPu8rS86Y1XCV5-OqWF-61" value="" style="rounded=0;html=1;jettySize=auto;orthogonalLoop=1;fontSize=11;endArrow=block;endFill=0;endSize=8;strokeWidth=1;shadow=0;labelBackgroundColor=none;edgeStyle=orthogonalEdgeStyle;" edge="1" parent="1">
          <mxGeometry y="20" relative="1" as="geometry">
            <mxPoint as="offset" />
            <mxPoint x="480" y="145" as="targetPoint" />
            <mxPoint x="301" y="544" as="sourcePoint" />
            <Array as="points">
              <mxPoint x="301" y="585" />
              <mxPoint x="770" y="585" />
              <mxPoint x="770" y="135" />
            </Array>
          </mxGeometry>
        </mxCell>
      </root>
    </mxGraphModel>
  </diagram>
</mxfile>
